<?xml version="1.0" encoding="UTF-8" standalone="no"?>
<!DOCTYPE svg PUBLIC "-//W3C//DTD SVG 1.1//EN"
 "http://www.w3.org/Graphics/SVG/1.1/DTD/svg11.dtd">
<!-- Generated by graphviz version 2.42.4 (0)
 -->
<!-- Title: CRISP_DM Pages: 1 -->
<svg width="758pt" height="44pt"
 viewBox="0.00 0.00 758.00 44.00" xmlns="http://www.w3.org/2000/svg" xmlns:xlink="http://www.w3.org/1999/xlink">
<g id="graph0" class="graph" transform="scale(1 1) rotate(0) translate(4 40)">
<title>CRISP_DM</title>
<polygon fill="#ffffff" stroke="transparent" points="-4,4 -4,-40 754,-40 754,4 -4,4"/>
<!-- step1 -->
<g id="node1" class="node">
<title>step1</title>
<path fill="#eff6ff" stroke="#2563eb" stroke-width="1.5" d="M75,-36C75,-36 12,-36 12,-36 6,-36 0,-30 0,-24 0,-24 0,-12 0,-12 0,-6 6,0 12,0 12,0 75,0 75,0 81,0 87,-6 87,-12 87,-12 87,-24 87,-24 87,-30 81,-36 75,-36"/>
<text text-anchor="middle" x="43.5" y="-21.2" font-family="Helvetica,Arial,sans-serif" font-size="11.00" fill="#1f2937">1. Business</text>
<text text-anchor="middle" x="43.5" y="-9.2" font-family="Helvetica,Arial,sans-serif" font-size="11.00" fill="#1f2937">Understanding</text>
</g>
<!-- step2 -->
<g id="node2" class="node">
<title>step2</title>
<path fill="#eff6ff" stroke="#2563eb" stroke-width="1.5" d="M186,-36C186,-36 142,-36 142,-36 136,-36 130,-30 130,-24 130,-24 130,-12 130,-12 130,-6 136,0 142,0 142,0 186,0 186,0 192,0 198,-6 198,-12 198,-12 198,-24 198,-24 198,-30 192,-36 186,-36"/>
<text text-anchor="middle" x="164" y="-21.2" font-family="Helvetica,Arial,sans-serif" font-size="11.00" fill="#1f2937">2. Data</text>
<text text-anchor="middle" x="164" y="-9.2" font-family="Helvetica,Arial,sans-serif" font-size="11.00" fill="#1f2937">Acquisition</text>
</g>
<!-- step1&#45;&gt;step2 -->
<g id="edge1" class="edge">
<title>step1&#45;&gt;step2</title>
<path fill="none" stroke="#4b5563" stroke-width="1.2" d="M87.28,-18C98.48,-18 110.53,-18 121.66,-18"/>
<polygon fill="#4b5563" stroke="#4b5563" stroke-width="1.2" points="121.95,-20.8 129.95,-18 121.95,-15.2 121.95,-20.8"/>
</g>
<!-- step3 -->
<g id="node3" class="node">
<title>step3</title>
<path fill="#eff6ff" stroke="#2563eb" stroke-width="1.5" d="M340,-36C340,-36 253,-36 253,-36 247,-36 241,-30 241,-24 241,-24 241,-12 241,-12 241,-6 247,0 253,0 253,0 340,0 340,0 346,0 352,-6 352,-12 352,-12 352,-24 352,-24 352,-30 346,-36 340,-36"/>
<text text-anchor="middle" x="296.5" y="-21.2" font-family="Helvetica,Arial,sans-serif" font-size="11.00" fill="#1f2937">3. Data Preparation</text>
<text text-anchor="middle" x="296.5" y="-9.2" font-family="Helvetica,Arial,sans-serif" font-size="11.00" fill="#1f2937">&amp; Management</text>
</g>
<!-- step2&#45;&gt;step3 -->
<g id="edge2" class="edge">
<title>step2&#45;&gt;step3</title>
<path fill="none" stroke="#4b5563" stroke-width="1.2" d="M198.27,-18C208.82,-18 220.86,-18 232.78,-18"/>
<polygon fill="#4b5563" stroke="#4b5563" stroke-width="1.2" points="233,-20.8 241,-18 233,-15.2 233,-20.8"/>
</g>
<!-- step4 -->
<g id="node4" class="node">
<title>step4</title>
<path fill="#f0fdf4" stroke="#16a34a" stroke-width="1.5" d="M466,-36C466,-36 407,-36 407,-36 401,-36 395,-30 395,-24 395,-24 395,-12 395,-12 395,-6 401,0 407,0 407,0 466,0 466,0 472,0 478,-6 478,-12 478,-12 478,-24 478,-24 478,-30 472,-36 466,-36"/>
<text text-anchor="middle" x="436.5" y="-21.2" font-family="Helvetica,Arial,sans-serif" font-size="11.00" fill="#1f2937">4. Modeling &amp;</text>
<text text-anchor="middle" x="436.5" y="-9.2" font-family="Helvetica,Arial,sans-serif" font-size="11.00" fill="#1f2937">Analytics</text>
</g>
<!-- step3&#45;&gt;step4 -->
<g id="edge3" class="edge">
<title>step3&#45;&gt;step4</title>
<path fill="none" stroke="#4b5563" stroke-width="1.2" d="M352.04,-18C363.56,-18 375.64,-18 386.92,-18"/>
<polygon fill="#4b5563" stroke="#4b5563" stroke-width="1.2" points="386.98,-20.8 394.98,-18 386.98,-15.2 386.98,-20.8"/>
</g>
<!-- step5 -->
<g id="node5" class="node">
<title>step5</title>
<path fill="#f0fdf4" stroke="#16a34a" stroke-width="1.5" d="M598,-36C598,-36 533,-36 533,-36 527,-36 521,-30 521,-24 521,-24 521,-12 521,-12 521,-6 527,0 533,0 533,0 598,0 598,0 604,0 610,-6 610,-12 610,-12 610,-24 610,-24 610,-30 604,-36 598,-36"/>
<text text-anchor="middle" x="565.5" y="-21.2" font-family="Helvetica,Arial,sans-serif" font-size="11.00" fill="#1f2937">5. Evaluation &amp;</text>
<text text-anchor="middle" x="565.5" y="-9.2" font-family="Helvetica,Arial,sans-serif" font-size="11.00" fill="#1f2937">Insight</text>
</g>
<!-- step4&#45;&gt;step5 -->
<g id="edge4" class="edge">
<title>step4&#45;&gt;step5</title>
<path fill="none" stroke="#4b5563" stroke-width="1.2" d="M478.03,-18C489.01,-18 501.06,-18 512.57,-18"/>
<polygon fill="#4b5563" stroke="#4b5563" stroke-width="1.2" points="512.84,-20.8 520.84,-18 512.84,-15.2 512.84,-20.8"/>
</g>
<!-- step6 -->
<g id="node6" class="node">
<title>step6</title>
<path fill="#fef3c7" stroke="#d97706" stroke-width="1.5" d="M738,-36C738,-36 665,-36 665,-36 659,-36 653,-30 653,-24 653,-24 653,-12 653,-12 653,-6 659,0 665,0 665,0 738,0 738,0 744,0 750,-6 750,-12 750,-12 750,-24 750,-24 750,-30 744,-36 738,-36"/>
<text text-anchor="middle" x="701.5" y="-21.2" font-family="Helvetica,Arial,sans-serif" font-size="11.00" fill="#1f2937">6. Deployment &amp;</text>
<text text-anchor="middle" x="701.5" y="-9.2" font-family="Helvetica,Arial,sans-serif" font-size="11.00" fill="#1f2937">Business Value</text>
</g>
<!-- step5&#45;&gt;step6 -->
<g id="edge5" class="edge">
<title>step5&#45;&gt;step6</title>
<path fill="none" stroke="#4b5563" stroke-width="1.2" d="M610.01,-18C620.95,-18 632.86,-18 644.33,-18"/>
<polygon fill="#4b5563" stroke="#4b5563" stroke-width="1.2" points="644.58,-20.8 652.58,-18 644.58,-15.2 644.58,-20.8"/>
</g>
</g>
</svg>
