<?xml version="1.0" encoding="UTF-8" standalone="no"?>
<!DOCTYPE svg PUBLIC "-//W3C//DTD SVG 1.1//EN"
 "http://www.w3.org/Graphics/SVG/1.1/DTD/svg11.dtd">
<!-- Generated by graphviz version 2.42.4 (0)
 -->
<!-- Title: CRISP_DM Pages: 1 -->
<svg width="514pt" height="173pt"
 viewBox="0.00 0.00 514.00 173.00" xmlns="http://www.w3.org/2000/svg" xmlns:xlink="http://www.w3.org/1999/xlink">
<g id="graph0" class="graph" transform="scale(1 1) rotate(0) translate(4 169)">
<title>CRISP_DM</title>
<polygon fill="#ffffff" stroke="transparent" points="-4,4 -4,-169 510,-169 510,4 -4,4"/>
<!-- step1 -->
<g id="node1" class="node">
<title>step1</title>
<path fill="#eff6ff" stroke="#2563eb" stroke-width="1.5" d="M118,-165C118,-165 12,-165 12,-165 6,-165 0,-159 0,-153 0,-153 0,-127 0,-127 0,-121 6,-115 12,-115 12,-115 118,-115 118,-115 124,-115 130,-121 130,-127 130,-127 130,-153 130,-153 130,-159 124,-165 118,-165"/>
<text text-anchor="middle" x="65" y="-143.2" font-family="Helvetica,Arial,sans-serif" font-size="11.00" fill="#1f2937">1. Business</text>
<text text-anchor="middle" x="65" y="-131.2" font-family="Helvetica,Arial,sans-serif" font-size="11.00" fill="#1f2937">Understanding</text>
</g>
<!-- step2 -->
<g id="node2" class="node">
<title>step2</title>
<path fill="#eff6ff" stroke="#2563eb" stroke-width="1.5" d="M306,-165C306,-165 200,-165 200,-165 194,-165 188,-159 188,-153 188,-153 188,-127 188,-127 188,-121 194,-115 200,-115 200,-115 306,-115 306,-115 312,-115 318,-121 318,-127 318,-127 318,-153 318,-153 318,-159 312,-165 306,-165"/>
<text text-anchor="middle" x="253" y="-143.2" font-family="Helvetica,Arial,sans-serif" font-size="11.00" fill="#1f2937">2. Data</text>
<text text-anchor="middle" x="253" y="-131.2" font-family="Helvetica,Arial,sans-serif" font-size="11.00" fill="#1f2937">Acquisition</text>
</g>
<!-- step1&#45;&gt;step2 -->
<!-- step1&#45;&gt;step2 -->
<g id="edge7" class="edge">
<title>step1&#45;&gt;step2</title>
<path fill="none" stroke="#4b5563" stroke-width="1.2" d="M130.36,-157.01C146.83,-159.01 163.3,-159.29 179.76,-157.84"/>
<polygon fill="#4b5563" stroke="#4b5563" stroke-width="1.2" points="180.18,-160.61 187.85,-156.98 179.6,-155.04 180.18,-160.61"/>
</g>
<!-- step6 -->
<g id="node4" class="node">
<title>step6</title>
<path fill="#fef3c7" stroke="#d97706" stroke-width="1.5" d="M118,-50C118,-50 12,-50 12,-50 6,-50 0,-44 0,-38 0,-38 0,-12 0,-12 0,-6 6,0 12,0 12,0 118,0 118,0 124,0 130,-6 130,-12 130,-12 130,-38 130,-38 130,-44 124,-50 118,-50"/>
<text text-anchor="middle" x="65" y="-28.2" font-family="Helvetica,Arial,sans-serif" font-size="11.00" fill="#1f2937">6. Deployment &amp;</text>
<text text-anchor="middle" x="65" y="-16.2" font-family="Helvetica,Arial,sans-serif" font-size="11.00" fill="#1f2937">Business Value</text>
</g>
<!-- step1&#45;&gt;step6 -->
<!-- step3 -->
<g id="node3" class="node">
<title>step3</title>
<path fill="#eff6ff" stroke="#2563eb" stroke-width="1.5" d="M494,-165C494,-165 388,-165 388,-165 382,-165 376,-159 376,-153 376,-153 376,-127 376,-127 376,-121 382,-115 388,-115 388,-115 494,-115 494,-115 500,-115 506,-121 506,-127 506,-127 506,-153 506,-153 506,-159 500,-165 494,-165"/>
<text text-anchor="middle" x="441" y="-143.2" font-family="Helvetica,Arial,sans-serif" font-size="11.00" fill="#1f2937">3. Data Preparation</text>
<text text-anchor="middle" x="441" y="-131.2" font-family="Helvetica,Arial,sans-serif" font-size="11.00" fill="#1f2937">&amp; Management</text>
</g>
<!-- step2&#45;&gt;step3 -->
<!-- step2&#45;&gt;step3 -->
<g id="edge8" class="edge">
<title>step2&#45;&gt;step3</title>
<path fill="none" stroke="#4b5563" stroke-width="1.2" d="M318.36,-157.01C334.83,-159.01 351.3,-159.29 367.76,-157.84"/>
<polygon fill="#4b5563" stroke="#4b5563" stroke-width="1.2" points="368.18,-160.61 375.85,-156.98 367.6,-155.04 368.18,-160.61"/>
</g>
<!-- step4 -->
<g id="node6" class="node">
<title>step4</title>
<path fill="#f0fdf4" stroke="#16a34a" stroke-width="1.5" d="M494,-50C494,-50 388,-50 388,-50 382,-50 376,-44 376,-38 376,-38 376,-12 376,-12 376,-6 382,0 388,0 388,0 494,0 494,0 500,0 506,-6 506,-12 506,-12 506,-38 506,-38 506,-44 500,-50 494,-50"/>
<text text-anchor="middle" x="441" y="-28.2" font-family="Helvetica,Arial,sans-serif" font-size="11.00" fill="#1f2937">4. Modeling &amp;</text>
<text text-anchor="middle" x="441" y="-16.2" font-family="Helvetica,Arial,sans-serif" font-size="11.00" fill="#1f2937">Analytics</text>
</g>
<!-- step3&#45;&gt;step4 -->
<g id="edge6" class="edge">
<title>step3&#45;&gt;step4</title>
<path fill="none" stroke="#4b5563" stroke-width="1.2" d="M441,-114.76C441,-98.37 441,-76.55 441,-58.64"/>
<polygon fill="#4b5563" stroke="#4b5563" stroke-width="1.2" points="443.8,-58.2 441,-50.2 438.2,-58.2 443.8,-58.2"/>
</g>
<!-- step5 -->
<g id="node5" class="node">
<title>step5</title>
<path fill="#f0fdf4" stroke="#16a34a" stroke-width="1.5" d="M306,-50C306,-50 200,-50 200,-50 194,-50 188,-44 188,-38 188,-38 188,-12 188,-12 188,-6 194,0 200,0 200,0 306,0 306,0 312,0 318,-6 318,-12 318,-12 318,-38 318,-38 318,-44 312,-50 306,-50"/>
<text text-anchor="middle" x="253" y="-28.2" font-family="Helvetica,Arial,sans-serif" font-size="11.00" fill="#1f2937">5. Evaluation &amp;</text>
<text text-anchor="middle" x="253" y="-16.2" font-family="Helvetica,Arial,sans-serif" font-size="11.00" fill="#1f2937">Insight</text>
</g>
<!-- step6&#45;&gt;step5 -->
<!-- step5&#45;&gt;step6 -->
<g id="edge10" class="edge">
<title>step5&#45;&gt;step6</title>
<path fill="none" stroke="#4b5563" stroke-width="1.2" d="M187.85,-41.98C171.38,-44 154.91,-44.29 138.44,-42.85"/>
<polygon fill="#4b5563" stroke="#4b5563" stroke-width="1.2" points="138.61,-40.06 130.36,-42.01 138.03,-45.62 138.61,-40.06"/>
</g>
<!-- step5&#45;&gt;step4 -->
<!-- step4&#45;&gt;step5 -->
<g id="edge9" class="edge">
<title>step4&#45;&gt;step5</title>
<path fill="none" stroke="#4b5563" stroke-width="1.2" d="M375.85,-41.98C359.38,-44 342.91,-44.29 326.44,-42.85"/>
<polygon fill="#4b5563" stroke="#4b5563" stroke-width="1.2" points="326.61,-40.06 318.36,-42.01 326.03,-45.62 326.61,-40.06"/>
</g>
</g>
</svg>
